<?xml version="1.0" standalone="no"?>
<!DOCTYPE svg PUBLIC "-//W3C//DTD SVG 20010904//EN"
 "http://www.w3.org/TR/2001/REC-SVG-20010904/DTD/svg10.dtd">
<svg version="1.0" xmlns="http://www.w3.org/2000/svg"
 width="204.000000pt" height="204.000000pt" viewBox="0 0 204.000000 204.000000"
 preserveAspectRatio="xMidYMid meet">
<metadata>
Created by potrace 1.14, written by Peter Selinger 2001-2017
</metadata>
<g transform="translate(0.000000,204.000000) scale(0.100000,-0.100000)"
fill="#000000" stroke="none">
<path d="M913 2029 c-224 -28 -444 -134 -602 -290 -73 -72 -171 -203 -171
-229 0 -5 -4 -10 -10 -10 -5 0 -9 -3 -8 -7 0 -5 -9 -30 -22 -57 -12 -27 -23
-54 -24 -60 -1 -6 -4 -15 -8 -21 -7 -12 -21 -73 -17 -77 1 -2 -3 -12 -9 -24
-6 -11 -13 -34 -16 -50 -24 -128 -27 -161 -21 -222 4 -37 9 -78 10 -92 11 -98
51 -225 107 -335 69 -134 185 -271 304 -357 61 -44 213 -125 249 -132 11 -2
34 -10 50 -16 110 -44 347 -64 455 -39 25 6 54 12 64 15 28 5 116 34 154 50
85 36 112 50 177 92 71 46 98 68 164 133 48 48 80 86 116 140 16 24 32 46 35
49 8 7 75 149 88 185 35 94 54 190 59 295 4 101 1 137 -21 255 -10 52 -29 116
-37 121 -5 3 -9 16 -9 30 0 13 -5 24 -12 24 -6 0 -9 3 -5 6 7 8 -61 137 -109
205 -206 291 -584 461 -931 418z m242 -328 c109 -51 178 -163 179 -291 1 -94
-18 -135 -94 -210 -67 -65 -121 -88 -213 -88 -116 0 -201 45 -272 143 -85 119
-47 314 82 412 86 66 219 80 318 34z m45 -811 c30 -6 65 -13 76 -16 35 -7 159
-59 206 -87 49 -29 162 -137 143 -137 -2 0 1 -14 7 -30 12 -37 1 -58 -81 -140
-248 -252 -616 -297 -916 -113 -85 52 -188 148 -215 199 -21 39 -4 88 51 149
28 30 55 52 60 49 5 -3 9 0 9 6 0 6 12 16 28 23 15 6 29 14 32 17 6 7 95 41
107 42 5 0 15 4 24 9 9 4 29 11 45 13 16 3 43 10 61 15 17 5 34 7 36 4 3 -3
13 0 23 5 23 13 233 8 304 -8z"/>
</g>
</svg>
